<?xml version="1.0" standalone="no"?><!DOCTYPE svg PUBLIC "-//W3C//DTD SVG 1.1//EN" "http://www.w3.org/Graphics/SVG/1.1/DTD/svg11.dtd"><svg t="1654593977751" class="icon" viewBox="0 0 1024 1024" version="1.1" xmlns="http://www.w3.org/2000/svg" p-id="2814" xmlns:xlink="http://www.w3.org/1999/xlink" width="35" height="35"><defs><style type="text/css">@font-face { font-family: feedback-iconfont; src: url("//at.alicdn.com/t/font_1031158_u69w8yhxdu.woff2?t=1630033759944") format("woff2"), url("//at.alicdn.com/t/font_1031158_u69w8yhxdu.woff?t=1630033759944") format("woff"), url("//at.alicdn.com/t/font_1031158_u69w8yhxdu.ttf?t=1630033759944") format("truetype"); }
</style></defs><path d="M902.864 861.52H886.4V280.384c0-33.44-29.824-57.6-60.16-49.888l-225.28 59.648c-21.6 5.664-36.496 26.24-36.496 49.888v521.488h-15.44V216.608c0-28.8-19.536-54.512-46.8-61.2l-288-73.536C175.136 72.096 137.6 101.92 137.6 143.072v718.448H121.136A41.264 41.264 0 0 0 80 902.672a41.264 41.264 0 0 0 41.136 41.136H902.88A41.264 41.264 0 0 0 944 902.672a41.264 41.264 0 0 0-41.136-41.152zM270.288 336.96h123.424c16.96 0 30.864 13.888 30.864 30.864 0 16.96-13.888 30.864-30.864 30.864h-123.424a30.944 30.944 0 0 1-30.864-30.864c0-16.96 13.888-30.864 30.864-30.864z m0 190.288h123.424c16.96 0 30.864 13.888 30.864 30.864 0 16.96-13.888 30.848-30.864 30.848h-123.424a30.944 30.944 0 0 1-30.864-30.848c0-16.96 13.888-30.864 30.864-30.864z m-30.864 334.288v-113.136c0-16.976 13.888-30.864 30.864-30.864h123.424c16.96 0 30.864 13.888 30.864 30.864v113.136H239.424z m439.712-334.288h92.576c16.96 0 30.864 13.888 30.864 30.864 0 16.96-13.888 30.848-30.864 30.848h-92.576a30.944 30.944 0 0 1-30.848-30.848c0-16.96 13.888-30.864 30.848-30.864z m-30.848 334.288v-113.136c0-16.976 13.888-30.864 30.848-30.864h92.576c16.96 0 30.864 13.888 30.864 30.864v113.136h-154.288z" fill="#FE9120" p-id="2815"></path></svg>