<?xml version="1.0" standalone="no"?><!DOCTYPE svg PUBLIC "-//W3C//DTD SVG 1.1//EN" "http://www.w3.org/Graphics/SVG/1.1/DTD/svg11.dtd"><svg t="1654593991467" class="icon" viewBox="0 0 1102 1024" version="1.1" xmlns="http://www.w3.org/2000/svg" p-id="3433" xmlns:xlink="http://www.w3.org/1999/xlink" width="37.666015625" height="35"><defs><style type="text/css">@font-face { font-family: feedback-iconfont; src: url("//at.alicdn.com/t/font_1031158_u69w8yhxdu.woff2?t=1630033759944") format("woff2"), url("//at.alicdn.com/t/font_1031158_u69w8yhxdu.woff?t=1630033759944") format("woff"), url("//at.alicdn.com/t/font_1031158_u69w8yhxdu.ttf?t=1630033759944") format("truetype"); }
</style></defs><path d="M615.893005 214.007593l-135.147075 131.168055v-269.805499h135.147075z" fill="#F59393" p-id="3434"></path><path d="M603.72907 201.485895L468.581995 332.65395a17.44748 17.44748 0 1 1 29.607052 12.52606v-269.805498a17.451843 17.451843 0 0 1-17.451843 17.451843h135.151438a17.451843 17.451843 0 0 1-17.451843-17.451843V214.00323a17.451843 17.451843 0 0 1 5.292271-12.517335z m12.163935-143.56759h-135.147075a17.451843 17.451843 0 0 0-17.451843 17.451844v269.805499a17.451843 17.451843 0 0 0 29.607052 12.521697l135.142712-131.163692a17.456206 17.456206 0 0 0 5.300998-12.521697V75.370149a17.451843 17.451843 0 0 0-17.451844-17.451844z" fill="#6E6E96" p-id="3435"></path><path d="M446.649391 17.451843h196.333238v57.918306h-196.333238z" fill="#F59393" p-id="3436"></path><path d="M642.982629 57.918305h-196.333238a17.451843 17.451843 0 0 1 17.451843 17.451844V17.451843a17.451843 17.451843 0 0 1-17.451843 17.451844h196.333238a17.451843 17.451843 0 0 1-17.451843-17.451844v57.918306a17.451843 17.451843 0 0 1 17.451843-17.451844z m0-57.918305h-196.333238a17.451843 17.451843 0 0 0-17.451843 17.451843v57.918306a17.451843 17.451843 0 0 0 17.451843 17.451843h196.333238a17.451843 17.451843 0 0 0 17.451844-17.451843V17.451843a17.451843 17.451843 0 0 0-17.451844-17.451843z" fill="#6E6E96" p-id="3437"></path><path d="M996.844932 1006.539431H444.358836V364.660631l278.727754-234.509146 273.758342 278.239102z" fill="#F0F0FF" p-id="3438"></path><path d="M996.844932 989.087587H444.358836a17.451843 17.451843 0 0 1 17.451844 17.451844V364.660631a17.456206 17.456206 0 0 1-6.217219 13.359386l278.727753-234.509146a17.460569 17.460569 0 0 1-23.682151-1.112555l273.758341 278.230376a17.478021 17.478021 0 0 1-5.004316-12.246831v598.166296a17.451843 17.451843 0 0 1 17.451844-17.46057z m12.447527-592.943831l-273.758341-278.230376a17.456206 17.456206 0 0 0-23.682152-1.112555l-278.727754 234.509145a17.451843 17.451843 0 0 0-6.217219 13.355024v641.883163a17.451843 17.451843 0 0 0 17.451843 17.451843h552.486096a17.451843 17.451843 0 0 0 17.451843-17.451843V408.390587a17.469295 17.469295 0 0 0-5.004316-12.246831z" fill="#6E6E96" p-id="3439"></path><path d="M719.60931 106.303541l-364.067268 364.071631 85.466041 85.448588 278.601227-278.609954 279.849035 279.844672 85.461677-85.448588z" fill="#AFAFCC" p-id="3440"></path><path d="M707.270857 93.965088l-364.071631 364.067268a17.451843 17.451843 0 0 0 0.008726 24.676906l85.461677 85.457314a17.438755 17.438755 0 0 0 24.676907 0l278.605591-278.609953a17.451843 17.451843 0 0 1-24.676907 0l279.853398 279.840308a17.438755 17.438755 0 0 0 24.668181 0l85.461677-85.452951a17.469295 17.469295 0 0 0 5.122116-12.33409 17.456206 17.456206 0 0 0-5.122116-12.338453l-365.306349-365.306349a17.451843 17.451843 0 0 0-24.68127 0z m365.306349 365.306349l-85.461677 85.448588a17.438755 17.438755 0 0 1 24.668181 0l-279.840309-279.844672a17.460569 17.460569 0 0 0-24.676907 0L428.660903 543.48967a17.438755 17.438755 0 0 1 24.676907 0l-85.461677-85.457314a17.469295 17.469295 0 0 1 0.004363 24.685632l364.067268-364.071631a17.451843 17.451843 0 0 1-24.676907 0l365.306349 365.297623a17.456206 17.456206 0 0 1-5.11339-12.338453 17.495473 17.495473 0 0 1 5.11339-12.33409z" fill="#6E6E96" p-id="3441"></path><path d="M494.018057 578.729305l225.687239-225.687239 254.216639 254.225366 13.197957-37.870501-267.510582-274.731281-229.426296 236.660085z" fill="#6E6E96" opacity=".17" p-id="3442"></path><path d="M501.212579 388.861974l216.232703-220.5913 320.878318 320.873956 29.144579-17.53474-346.720136-339.49071-217.458694 215.194318z" fill="#FFFFFF" opacity=".17" p-id="3443"></path><path d="M498.197773 92.821992h100.243389v35.732649h-100.243389zM553.541932 34.903687h71.988854v23.014618h-71.988854z" fill="#6E6E96" opacity=".15" p-id="3444"></path><path d="M556.164071 127.590427h54.942766v34.903687h-54.942766zM483.952706 195.089794h52.59113v34.903687h-52.59113z" fill="#6E6E96" p-id="3445"></path><path d="M17.451843 273.562008h465.383945v732.977423H17.451843z" fill="#F0F0FF" p-id="3446"></path><path d="M482.835788 989.087587H17.451843a17.451843 17.451843 0 0 1 17.451844 17.451844v-732.977423a17.451843 17.451843 0 0 1-17.451844 17.451844h465.383945a17.451843 17.451843 0 0 1-17.451843-17.451844v732.977423a17.451843 17.451843 0 0 1 17.451843-17.451844z m0-732.977422H17.451843a17.451843 17.451843 0 0 0-17.451843 17.451843v732.977423a17.451843 17.451843 0 0 0 17.451843 17.451843h465.383945a17.451843 17.451843 0 0 0 17.451844-17.451843v-732.977423a17.451843 17.451843 0 0 0-17.451844-17.451843z" fill="#6E6E96" p-id="3447"></path><path d="M17.451843 655.534867h465.383945v351.004564H17.451843z" fill="#FFFFFF" p-id="3448"></path><path d="M17.451843 939.127323h974.393136v67.412108H17.451843z" fill="#DBADAD" p-id="3449"></path><path d="M991.844979 989.087587H17.451843a17.451843 17.451843 0 0 1 17.451844 17.451844V939.127323a17.451843 17.451843 0 0 1-17.451844 17.451843h974.393136a17.451843 17.451843 0 0 1-17.451844-17.451843v67.412108a17.451843 17.451843 0 0 1 17.451844-17.451844z m0-67.412108H17.451843a17.451843 17.451843 0 0 0-17.451843 17.451844v67.412108a17.451843 17.451843 0 0 0 17.451843 17.451843h974.393136a17.451843 17.451843 0 0 0 17.451843-17.451843V939.127323a17.451843 17.451843 0 0 0-17.451843-17.451844z" fill="#6E6E96" p-id="3450"></path><path d="M84.349122 720.97928h333.831949v285.560151H84.349122z" fill="#F0F0FF" p-id="3451"></path><path d="M418.181071 989.087587H84.349122a17.451843 17.451843 0 0 1 17.451843 17.451844V720.97928a17.451843 17.451843 0 0 1-17.451843 17.451844h333.831949a17.451843 17.451843 0 0 1-17.451843-17.451844v285.560151a17.451843 17.451843 0 0 1 17.451843-17.451844z m0-285.56015H84.349122a17.451843 17.451843 0 0 0-17.451843 17.451843v285.560151a17.451843 17.451843 0 0 0 17.451843 17.451843h333.831949a17.451843 17.451843 0 0 0 17.451844-17.451843V720.97928a17.451843 17.451843 0 0 0-17.451844-17.451843z" fill="#6E6E96" p-id="3452"></path><path d="M133.79892 778.422023h231.236925v34.903687h-231.236925zM133.79892 846.047916h231.236925v34.903687h-231.236925zM133.79892 915.855289h231.236925v34.903687h-231.236925z" fill="#6E6E96" opacity=".17" p-id="3453"></path><path d="M88.712083 339.944457h319.949008v315.586048H88.712083z" fill="#BADEFF" p-id="3454"></path><path d="M336.6766 390.118507L106.163926 620.631181v17.451843H170.155473l221.058137-221.058137v-26.90638z" fill="#FFFFFF" opacity=".25" p-id="3455"></path><path d="M408.665454 638.083024H88.712083a17.451843 17.451843 0 0 1 17.451843 17.451843V339.944457a17.451843 17.451843 0 0 1-17.451843 17.451844h319.949008a17.451843 17.451843 0 0 1-17.451844-17.451844v315.586048a17.456206 17.456206 0 0 1 17.456207-17.447481z m0-315.59041H88.712083a17.451843 17.451843 0 0 0-17.451843 17.451843v315.586048a17.451843 17.451843 0 0 0 17.451843 17.451843h319.949008a17.451843 17.451843 0 0 0 17.451843-17.451843V339.944457a17.451843 17.451843 0 0 0-17.44748-17.451843z" fill="#6E6E96" p-id="3456"></path><path d="M385.393421 552.276673h34.903686v103.253832h-34.903686zM306.860125 552.276673h34.903687v103.253832h-34.903687zM232.689791 552.276673h34.903687v103.253832h-34.903687zM152.70363 552.276673h34.903686v103.253832h-34.903686zM74.170334 552.276673h34.903687v93.070681h-34.903687z" fill="#6E6E96" p-id="3457"></path><path d="M624.819623 700.617342h219.256235v303.107979H624.819623z" fill="#FF8F8F" p-id="3458"></path><path d="M624.819623 718.069185h219.256235a17.451843 17.451843 0 0 1-17.451844-17.451843v303.107979a17.451843 17.451843 0 0 1 17.451844-17.451843H624.819623a17.451843 17.451843 0 0 1 17.451843 17.451843v-303.107979a17.451843 17.451843 0 0 1-17.451843 17.451843z m0 303.107979h219.256235a17.451843 17.451843 0 0 0 17.451843-17.451843v-303.107979a17.451843 17.451843 0 0 0-17.451843-17.451843H624.819623a17.451843 17.451843 0 0 0-17.451843 17.451843v303.107979a17.451843 17.451843 0 0 0 17.451843 17.451843z" fill="#6E6E96" p-id="3459"></path><path d="M762.139453 868.447357v27.124527a16.950103 16.950103 0 1 0 33.904569 0v-27.124527a16.954466 16.954466 0 1 0-33.904569 0z" fill="#6E6E96" p-id="3460"></path><path d="M641.774089 717.567445h185.351666v28.817356h-185.351666zM641.774089 746.389164h35.597398v240.381691h-35.597398z" fill="#6E6E96" opacity=".17" p-id="3461"></path><path d="M722.022028 523.869435m-64.759428 0a64.759428 64.759428 0 1 0 129.518856 0 64.759428 64.759428 0 1 0-129.518856 0Z" fill="#BADEFF" p-id="3462"></path><path d="M769.333975 523.869435c0 26.086143-21.225805 47.311947-47.311947 47.311947a46.997814 46.997814 0 0 1-33.455184-13.856763 47.002177 47.002177 0 0 1-13.856764-33.455184c0-26.086143 21.217079-47.307584 47.311948-47.307584 26.086143 0 47.311947 21.225805 47.311947 47.307584z m-47.307584-82.211271c-45.335526 0-82.215634 36.880108-82.215634 82.211271 0 21.958782 8.551403 42.608676 24.083543 58.13209a81.648449 81.648449 0 0 0 58.132091 24.083544c45.335526 0 82.215634-36.880108 82.215634-82.215634-0.004363-45.331163-36.893197-82.211271-82.215634-82.211271z" fill="#6E6E96" p-id="3463"></path><path d="M106.163926 357.396301h285.045321v32.722206H106.163926z" fill="#6E6E96" opacity=".17" p-id="3464"></path><path d="M106.163926 542.822137l152.70363-152.70363h-152.70363z" fill="#FFFFFF" opacity=".43" p-id="3465"></path><path d="M101.800965 738.431124h298.928263v31.264977H101.800965z" fill="#6E6E96" opacity=".17" p-id="3466"></path><path d="M17.451843 534.82483h475.340222v34.903686H17.451843z" fill="#6E6E96" p-id="3467"></path><path d="M34.903687 569.728516h428.298777v25.444788H34.903687z" fill="#6E6E96" opacity=".15" p-id="3468"></path><path d="M940.484203 573.820974v415.266613h51.360776v-363.369194zM526.011649 546.735713v442.351874h-25.724017v-416.63222z" fill="#6E6E96" opacity=".17" p-id="3469"></path><path d="M482.835788 989.087587H17.451843a17.451843 17.451843 0 0 1 17.451844 17.451844V655.534867a17.451843 17.451843 0 0 1-17.451844 17.451844h465.383945a17.451843 17.451843 0 0 1-17.451843-17.451844v351.004564a17.451843 17.451843 0 0 1 17.451843-17.451844z m0-351.004563H17.451843a17.451843 17.451843 0 0 0-17.451843 17.451843v351.004564a17.451843 17.451843 0 0 0 17.451843 17.451843h465.383945a17.451843 17.451843 0 0 0 17.451844-17.451843V655.534867a17.451843 17.451843 0 0 0-17.451844-17.451843z" fill="#6E6E96" p-id="3470"></path></svg>