<?xml version="1.0" standalone="no"?><!DOCTYPE svg PUBLIC "-//W3C//DTD SVG 1.1//EN" "http://www.w3.org/Graphics/SVG/1.1/DTD/svg11.dtd"><svg t="1654593999628" class="icon" viewBox="0 0 1053 1024" version="1.1" xmlns="http://www.w3.org/2000/svg" p-id="3626" xmlns:xlink="http://www.w3.org/1999/xlink" width="35.9912109375" height="35"><defs><style type="text/css">@font-face { font-family: feedback-iconfont; src: url("//at.alicdn.com/t/font_1031158_u69w8yhxdu.woff2?t=1630033759944") format("woff2"), url("//at.alicdn.com/t/font_1031158_u69w8yhxdu.woff?t=1630033759944") format("woff"), url("//at.alicdn.com/t/font_1031158_u69w8yhxdu.ttf?t=1630033759944") format("truetype"); }
</style></defs><path d="M876.501554 24.406218a35.37133 35.37133 0 0 1-19.100518 42.799309h-3.537133l-82.768912 26.88221v240.525044h188.882902a35.37133 35.37133 0 0 1 35.37133 31.480483v221.070812h20.869084a35.37133 35.37133 0 0 1 35.37133 35.37133v141.485319a35.37133 35.37133 0 0 1-35.37133 35.37133h-20.869084v189.236615a35.37133 35.37133 0 0 1-31.480484 35.37133H35.37133a35.37133 35.37133 0 0 1-35.37133-35.37133V565.941278a35.37133 35.37133 0 0 1 35.37133-35.37133h106.11399V299.595164l-95.502591 30.773057a35.37133 35.37133 0 0 1-43.153023-19.454231V307.73057a35.37133 35.37133 0 0 1 18.039379-42.799309h3.537133L832.287392 1.768566a35.37133 35.37133 0 0 1 44.214162 22.637652z m-302.778583 773.924697h-111.065976v154.218999h111.065976zM392.621762 601.312608H70.74266v350.529879h321.879102z m287.215198 196.310881H601.312608v154.218998h78.170639z m245.123316 0h-99.039723v154.218998h99.039723z m-127.336787 0H707.426598v154.218998h89.843177z m183.577202-141.48532H462.656995v70.74266h518.543696z m-56.240415-252.197582H462.656995v182.162349h111.065976v-117.079102a14.148532 14.148532 0 0 1 11.318825-13.794818H813.540587a14.148532 14.148532 0 0 1 13.794819 11.672538v121.677375h99.039724z m-245.123316 77.109499H601.312608v106.11399h78.170639z m117.786529 0H707.426598v106.11399h89.843177z m-96.917444-343.455613L210.105699 284.739206v247.599309h182.516063v-161.293265a35.37133 35.37133 0 0 1 31.480483-35.371329h276.6038zM315.512263 314.804836a28.297064 28.297064 0 0 1 27.94335 27.943351v28.297063a28.297064 28.297064 0 0 1-27.94335 27.943351h-28.297064a28.297064 28.297064 0 0 1-27.943351-27.943351v-28.297063a28.297064 28.297064 0 0 1 27.943351-27.943351z" p-id="3627"></path></svg>